<svg xmlns="http://www.w3.org/2000/svg" xml:space="preserve" id="Layer_1" x="0" y="0" style="enable-background:new 0 0 300 300" version="1.1" viewBox="0 0 300 300"><style>.st0{fill:#fff}.st1{fill:#052864}.st3{fill:#0ba047}.st4{fill:none;stroke:#052864;stroke-width:4;stroke-miterlimit:10}</style><g id="NEWmust"><circle id="XMLID_97_" cx="150" cy="150" r="147" class="st0"/><g id="misrUniFor"><path d="m44 222.8-10.6 2.3-3.5-5.1.3-.2.3.4c.3.4.5.6.8.8.2.1.4.1.7.1.2 0 .6-.3 1.2-.7l8.3-5.7c.6-.4 1-.8 1.1-.9.1-.2.2-.4.1-.7 0-.3-.2-.6-.4-1l-.3-.4.3-.2 4.5 6.5-.3.2-.3-.4c-.3-.4-.5-.6-.8-.8-.2-.1-.4-.1-.7-.1-.2 0-.6.3-1.2.7l-9.3 6.4 14.8-3 .2.2-8 12.7 8.8-6.1c.6-.4 1-.7 1.1-.8.3-.3.4-.6.4-1s-.2-.9-.6-1.5l.3-.2 3 4.3-.3.2-.1-.1c-.2-.3-.4-.5-.7-.7-.3-.2-.5-.3-.8-.3-.2 0-.5 0-.9.2-.1 0-.4.2-1 .6l-7.9 5.5c-.6.4-1 .7-1.1.9-.1.2-.2.4-.1.7 0 .3.2.6.4 1l.3.4-.3.2-3.5-5.1 5.8-9.3zM38.4 204l.4-.2 3.7 7.1-.4.2-.2-.4c-.2-.4-.4-.7-.7-.8-.2-.1-.4-.2-.7-.1-.2 0-.6.2-1.3.5l-8.9 4.7c-.7.4-1.1.6-1.2.8-.1.2-.2.4-.2.7 0 .3.1.6.3 1l.2.4-.4.2-3.7-7.1.4-.2.2.4c.2.4.4.7.7.8.2.1.4.2.7.2.2 0 .6-.2 1.3-.5l8.9-4.7c.7-.4 1.1-.6 1.2-.8.1-.2.2-.4.2-.7 0-.3-.1-.6-.3-1l-.2-.5zM20.1 199.7l4.6-2.1.2.4c-1.1.7-1.8 1.6-2.2 2.7-.4 1.1-.4 2.1 0 3 .3.7.7 1.2 1.3 1.4.5.3 1.1.3 1.6.1.3-.1.6-.3.7-.6.2-.3.4-.8.6-1.4.1-.4.2-1.3.3-2.8.1-2 .4-3.4.9-4.3.5-.9 1.2-1.5 2.1-1.9 1.2-.5 2.4-.5 3.6.1 1.2.6 2.1 1.5 2.7 3 .2.4.3.9.4 1.3.1.4.1 1 .1 1.7 0 .4 0 .7.1.9.1.2.2.3.4.5.2.1.5.2.8.2l.2.4-5.3 2.2-.2-.4c1.4-.9 2.3-2 2.7-3.2.4-1.2.4-2.3 0-3.3-.3-.8-.8-1.3-1.4-1.6-.6-.3-1.2-.3-1.8-.1-.3.1-.6.4-.9.7-.2.3-.4.7-.5 1.2-.1.5-.2 1.3-.3 2.4-.1 1.5-.2 2.7-.4 3.4-.2.7-.5 1.4-.9 1.9s-1 .9-1.6 1.2c-1.1.5-2.2.5-3.4 0-1.1-.5-2-1.4-2.5-2.6-.2-.5-.3-.9-.4-1.4-.1-.4-.1-.8 0-1.4 0-.6 0-.9-.1-1.1-.1-.2-.2-.3-.3-.4-.2-.1-.5 0-.9 0l-.2-.1zM25.3 188.3l4.1-1.2c.8-.2 1.3-.4 1.5-.6.2-.2.3-.4.3-.7.1-.3 0-.8-.2-1.4l.4-.1 2.2 7.5-.4.1c-.2-.7-.4-1.1-.6-1.3-.2-.2-.4-.3-.6-.4-.2 0-.7.1-1.5.3l-9.5 2.7c-.8.2-1.3.4-1.5.6-.2.2-.3.4-.3.7-.1.3 0 .8.2 1.4l-.4.1-2-6.8c-.5-1.8-.8-3.1-.8-4 0-.9.3-1.7.8-2.4s1.2-1.2 2.1-1.4c1.1-.3 2.1-.2 3 .4.6.4 1.1 1 1.6 1.8l3.9-4.9c.5-.6.8-1.1.9-1.3.1-.4.2-.7.1-1.1l.4-.1 1.3 4.6-5.3 6.6.3.9zm-7.1 2.1 6.4-1.9-.2-.6c-.3-1-.6-1.7-.9-2.2-.3-.4-.8-.7-1.3-.9-.6-.1-1.2-.1-2 .1-1.1.3-1.9.8-2.2 1.5-.4.7-.4 1.6-.1 2.8l.3 1.2zM12.9 172.3l-.8-7.8h.4v.4c.1.6.2 1 .3 1.2.1.2.3.3.6.4.2.1.8.1 1.6 0l7.4-.8c1.4-.1 2.2-.3 2.7-.6.4-.3.7-.6 1-1.1.2-.5.3-1.1.2-1.8-.1-.8-.3-1.5-.8-2-.4-.5-1-.9-1.7-1.1-.7-.2-1.8-.2-3.4-.1l-6.2.6c-.7.1-1.2.2-1.4.4-.3.2-.5.4-.5.6-.1.4-.2.8-.1 1.4h-.4l-.6-5.2h.4v.3c0 .4.2.8.4 1 .2.3.5.4.8.5.2.1.7.1 1.3 0l5.9-.6c1.8-.2 3.1-.2 3.9-.1.8.2 1.6.6 2.4 1.5.8.8 1.2 2 1.4 3.6.1 1.3.1 2.3-.2 3.1-.4 1-.9 1.8-1.6 2.3-.7.5-1.7.8-2.9.9l-7.4.8c-.9.1-1.4.2-1.6.3-.2.1-.4.3-.5.6-.1.3-.1.7 0 1.3h-.6zM11.3 149.1l9.6-7.3-6.5-.2c-.9 0-1.5.1-1.9.3-.4.3-.7.9-.7 1.8h-.4l.1-5h.4c.1.6.2 1.1.3 1.3.1.2.3.4.6.5.3.1.8.2 1.5.2l12.7.3v.4l-12.9 10 9.7.2c.9 0 1.5-.2 1.8-.6.3-.4.5-.8.5-1.4v-.4h.4l-.1 5.4H26c0-.8-.1-1.4-.5-1.8-.3-.3-.9-.5-1.7-.5l-10.7-.3-.4.3c-.4.3-.7.6-.8.8-.1.2-.2.6-.2 1.1h-.4v-5.1zM27.6 130.6l.4.1-1 7.9-.4-.1.1-.5c.1-.4 0-.8-.1-1.1-.1-.2-.2-.4-.5-.5-.2-.1-.6-.2-1.4-.3l-9.9-1.2c-.8-.1-1.3-.1-1.5-.1-.2.1-.4.2-.6.4-.2.2-.3.6-.3 1l-.1.5-.4-.1 1-7.9.4.1-.1.5c-.1.4 0 .8.1 1.1.1.2.2.4.5.5.2.1.6.2 1.4.3l9.9 1.2c.8.1 1.3.1 1.5.1.2-.1.4-.2.6-.4.2-.2.3-.6.3-1l.1-.5zM16.6 111.1l.4.1c0 .6.1 1.1.5 1.6.3.4 1 1 2.3 2l10.2 7.7-.1.4-13 2.4c-1.6.3-2.5.5-2.8.7-.3.2-.5.5-.7 1.1l-.4-.1 1.6-7.1.4.1-.1.2c-.1.6-.2 1.1-.1 1.4.1.2.2.3.4.4h.5c.2 0 .7-.1 1.6-.3l8.1-1.5-5.9-4.4c-.7-.5-1.2-.9-1.4-1-.3-.1-.5-.2-.7-.3h-.6c-.2.1-.4.2-.5.4-.2.3-.4.7-.5 1.2l-.4-.1 1.2-4.9zM20.1 103.9 26 106l.1-.3c.3-.9.3-1.7-.1-2.3s-1.2-1.2-2.2-1.7l.1-.4 7.5 2.7-.1.4c-.8-.2-1.6-.3-2.2-.2-.6.1-1.1.3-1.4.6-.3.3-.6.8-.8 1.5l4 1.5c.8.3 1.3.4 1.5.4.2 0 .4-.1.6-.2.2-.1.3-.4.5-.8l.3-.9c.5-1.3.6-2.5.3-3.6-.3-1-1.1-2-2.2-2.8l.1-.4 4.3 2.3-4.5 12.4-.4-.1.2-.5c.2-.4.2-.8.1-1.1 0-.2-.1-.4-.4-.6-.1-.1-.6-.3-1.3-.6l-9.4-3.5c-.6-.2-1-.4-1.2-.4-.3 0-.5 0-.7.2-.3.2-.5.5-.7 1l-.2.5-.4-.1 4.4-12 4.2 1.6-.2.4c-1.1-.2-2-.2-2.5 0-.6.2-1.1.6-1.6 1.2-.3.3-.6 1.1-1 2.1l-.6 1.6zM33.2 92.1l3.8 2c.7.4 1.2.6 1.5.6.2 0 .5-.1.7-.2.2-.2.5-.6.8-1.2l.4.2-3.6 6.9-.4-.2c.3-.6.5-1.1.5-1.4 0-.3-.1-.5-.2-.7-.1-.2-.6-.5-1.3-.8l-8.8-4.5c-.7-.4-1.2-.6-1.5-.6-.2 0-.5.1-.7.2-.2.2-.5.6-.8 1.2l-.4-.2 3.3-6.3c.8-1.6 1.6-2.8 2.2-3.4.6-.6 1.4-1 2.2-1.2.9-.2 1.7 0 2.5.4 1 .5 1.6 1.3 1.9 2.4.2.7.2 1.5-.1 2.4l6.3-.9c.8-.1 1.3-.2 1.6-.3.3-.2.6-.4.8-.8l.4.2L42 90l-8.4 1.2-.4.9zm-6.7-3.5 5.9 3.1.3-.6c.5-.9.8-1.7.8-2.2.1-.5 0-1.1-.4-1.6-.3-.5-.8-.9-1.5-1.3-1-.5-1.9-.7-2.7-.5-.7.2-1.4.9-1.9 1.9l-.5 1.2zM37.2 68.7l4.3 2.7-.3.4c-1.2-.5-2.3-.7-3.4-.4-1.1.3-2 .8-2.5 1.6-.4.6-.6 1.2-.5 1.8.1.6.4 1 .8 1.3.3.2.6.3.9.3.4 0 .9-.1 1.4-.3.4-.2 1.2-.6 2.5-1.3 1.7-1 3.1-1.5 4.1-1.6 1-.1 1.9.2 2.7.7 1.1.7 1.7 1.7 1.9 3.1.2 1.3-.1 2.6-1 3.9-.3.4-.6.7-.9 1-.3.3-.8.6-1.4 1-.3.2-.6.4-.7.6-.1.4-.1.6-.1.9 0 .3.1.5.3.8l-.3.4-4.8-3.2.2-.3c1.5.6 2.9.8 4.1.5 1.2-.3 2.1-.9 2.8-1.8.5-.7.7-1.4.6-2-.1-.7-.4-1.2-.9-1.5-.3-.2-.6-.3-1-.3s-.8 0-1.3.2-1.2.5-2.1 1c-1.3.8-2.4 1.3-3.1 1.5-.7.2-1.4.3-2.1.3s-1.3-.3-1.9-.7c-1-.7-1.6-1.6-1.8-2.8-.2-1.2.1-2.4.8-3.5.3-.4.6-.8 1-1.1.3-.2.6-.5 1.1-.8.5-.3.8-.5.9-.7.1-.2.1-.3.1-.5s-.2-.4-.5-.7l.1-.5zM56.1 69.2l.3.3-5 6.2-.3-.3.3-.4c.3-.3.4-.7.5-1 0-.2 0-.4-.1-.7-.1-.2-.4-.5-1-1L43 66c-.6-.5-1-.8-1.2-.8-.2-.1-.4 0-.7.1-.3.1-.5.3-.8.7l-.3.4-.3-.3 5-6.2.3.3-.3.4c-.3.3-.4.7-.5 1 0 .2 0 .4.1.7.1.2.4.5 1 1l7.8 6.3c.6.5 1 .8 1.2.8.2.1.4 0 .7-.1.3-.1.5-.3.8-.7l.3-.4zM55.6 48.2l2.9 2.9-.3.3c-.8-.5-1.5-.8-2-.9-.5-.1-1 0-1.6.2-.3.1-.7.4-1.2.9l-.8.8 8.4 8.2c.6.5.9.9 1.1.9.2.1.4.1.7 0 .3-.1.6-.3.9-.6l.4-.4.3.3-5.6 5.7-.3-.3.5-.2c.3-.3.5-.6.6-.9.1-.2 0-.4-.1-.7-.1-.2-.4-.5-.9-1.1l-8.4-8.2-.8.8c-.7.7-1.1 1.4-1.1 2.1 0 .9.3 1.8 1 2.7l-.3.2-2.9-2.9 9.5-9.8zM70.1 36.5l.3.3c-.4.4-.6.7-.6 1.1-.1.5 0 1.5.2 3.1l.8 6.4 2.3 2.9c.5.6.8 1 1 1.1.2.1.4.1.7.1.3 0 .6-.2.9-.4l.7-.5.3.3-6.7 5.3-.3-.3.6-.5c.4-.3.6-.6.7-.8.1-.2.1-.4 0-.7 0-.2-.3-.6-.8-1.2l-1.9-2.4-6.9-2.9c-1.4-.6-2.2-.8-2.6-.8-.4 0-.7.2-1.1.4l-.3-.3 5.7-4.5.3.3-.3.2c-.3.3-.5.5-.6.7-.1.2 0 .4 0 .5.2.2.8.6 2 1l5.3 2.2-.7-5.3c-.2-1.3-.4-2.1-.6-2.4-.1-.2-.3-.2-.5-.2-.3 0-.8.2-1.3.6l-.3-.3 3.7-3zM81.9 30.3l3.1 5.4.4-.2c.6-.3 1-.7 1.3-1.1.3-.4.4-.9.4-1.4 0-.6-.1-1.2-.4-2l.3-.2 3.8 6.7-.3.2c-.8-1.2-1.6-1.8-2.4-1.9-.8-.1-1.5.1-2.2.5l-.4.2 2.3 4.1c.4.7.7 1.1.8 1.2.2.1.4.2.7.2.3 0 .6-.1 1-.3l.4-.2.2.4-6.9 3.9-.2-.4.4-.2c.4-.2.7-.5.8-.7.1-.2.2-.4.1-.7 0-.2-.2-.6-.6-1.3l-4.9-8.7c-.4-.7-.7-1.1-.8-1.2-.2-.1-.4-.2-.7-.2-.3 0-.6.1-1 .3l-.4.2-.2-.4 11.2-6.3 2.1 3.8-.4.2c-.6-.8-1.2-1.4-1.8-1.6-.6-.2-1.3-.2-2.1 0-.4.1-1.2.5-2.3 1.1l-1.3.6zM97.6 21.4c2.2-1 4.3-1.1 6.3-.3s3.4 2.3 4.2 4.4c.7 1.8.8 3.6.4 5.4-.7 2.4-2.2 4.1-4.8 5.1-2.5 1-4.9 1-6.9-.2-1.6-.9-2.9-2.3-3.6-4.2-.9-2.1-.8-4.1 0-6.1.8-1.9 2.3-3.3 4.4-4.1zm.4.6c-1.3.5-2 1.6-2.1 3.2-.1 1.3.3 3 1.1 5 1 2.4 2.1 4 3.4 4.8.9.6 1.9.6 3 .2.7-.3 1.2-.7 1.6-1.2.4-.7.6-1.6.6-2.7-.1-1.1-.4-2.5-1-4-.8-1.9-1.5-3.2-2.2-4-.7-.8-1.4-1.3-2.1-1.4-.9-.2-1.6-.1-2.3.1zM115.5 24.3l1.1 4.1c.2.8.4 1.3.5 1.5.2.2.4.3.6.4.3.1.8 0 1.4-.2l.1.4-7.6 1.9-.1-.4c.7-.2 1.1-.4 1.3-.5.2-.2.3-.4.4-.6 0-.2 0-.7-.2-1.5l-2.4-9.6c-.2-.8-.4-1.3-.5-1.5-.2-.2-.4-.3-.6-.4-.3-.1-.8 0-1.4.2l-.1-.4 6.9-1.8c1.8-.5 3.1-.7 4-.6.9 0 1.7.3 2.4.8s1.2 1.2 1.4 2.1c.3 1.1.1 2.1-.5 3-.4.6-1 1.1-1.8 1.5l4.8 4.1c.6.5 1.1.8 1.3 1 .4.1.7.2 1.1.1l.1.4-4.6 1.2-6.5-5.5-1.1.3zm-1.9-7.2 1.7 6.5.6-.2c1-.3 1.7-.5 2.2-.9.5-.3.8-.7.9-1.3.2-.6.1-1.2-.1-2-.3-1.1-.8-1.9-1.4-2.3-.7-.4-1.6-.5-2.7-.2l-1.2.4zM141.9 11.2l.6 5h-.5c-.3-1.2-1-2.2-1.9-2.9-.9-.7-1.9-1-2.9-.9-.8.1-1.3.3-1.8.8-.4.4-.6.9-.5 1.5 0 .3.1.6.3.9.2.3.6.6 1.1.9.4.2 1.2.6 2.5 1.1 1.9.7 3.1 1.4 3.8 2.2.7.7 1.1 1.6 1.2 2.6.1 1.3-.3 2.4-1.2 3.4-.9 1-2.1 1.6-3.6 1.7h-1.4c-.4-.1-1-.2-1.6-.4-.4-.1-.7-.2-.9-.1-.2 0-.4.1-.6.3-.2.2-.4.4-.5.7h-.4l-.5-5.7h.4c.5 1.6 1.2 2.8 2.2 3.5 1 .8 2.1 1.1 3.1 1 .8-.1 1.5-.4 1.9-.9.5-.5.7-1.1.6-1.7 0-.4-.2-.7-.4-1-.2-.3-.5-.6-1-.9-.4-.3-1.1-.6-2.2-1-1.4-.6-2.5-1-3.1-1.5-.6-.4-1.2-.9-1.5-1.5-.4-.6-.6-1.2-.7-1.9-.1-1.2.2-2.3 1.1-3.2.8-.9 1.9-1.5 3.2-1.6.5 0 1 0 1.4.1.4.1.8.2 1.3.4s.9.3 1.1.3c.2 0 .3-.1.4-.2s.2-.4.2-.9l.8-.1zM160.6 11.3l-.1 5.3h-.4c-.3-1.4-.9-2.5-1.8-3.2s-1.9-1.1-3-1.2c-1 0-1.8.2-2.6.8-.8.5-1.4 1.2-1.8 2.1-.5 1.1-.8 2.4-.8 3.8s.1 2.6.4 3.7c.3 1.1.8 2 1.6 2.6.7.6 1.7.9 2.8.9 1 0 1.8-.2 2.6-.6.8-.4 1.7-1.1 2.6-2.1v1.3c-.9.9-1.8 1.5-2.7 1.9-.9.4-2 .6-3.3.5-1.6 0-3.1-.4-4.3-1.1-1.2-.7-2.2-1.6-2.9-2.9-.7-1.2-1-2.5-.9-3.9 0-1.5.5-2.8 1.2-4.1.8-1.3 1.8-2.3 3.2-3 1.3-.7 2.7-1 4.1-1 1.1 0 2.2.3 3.4.8.7.3 1.1.4 1.3.4.2 0 .4-.1.6-.2.2-.2.3-.4.4-.8h.4zM169.5 27.7l-.1.4-7.9-1 .1-.4.5.1c.4.1.8 0 1.1-.1.2-.1.4-.2.5-.5.1-.2.2-.6.3-1.4l1.2-9.9c.1-.8.1-1.3.1-1.5-.1-.2-.2-.4-.4-.6-.2-.2-.6-.3-1-.3l-.5-.1.1-.4 7.9 1-.1.4-.5-.1c-.4-.1-.8 0-1.1.1-.2.1-.4.2-.5.5-.1.2-.2.6-.3 1.4l-1.2 9.9c-.1.8-.1 1.3-.1 1.5s.2.4.4.6c.2.2.6.3 1 .3l.5.1zM178.9 15.3l-1.4 6 .3.1c.9.2 1.7.1 2.2-.4.6-.5 1-1.3 1.4-2.4l.4.1-1.7 7.8-.4-.1c.1-.9.1-1.6-.1-2.2-.2-.6-.4-1-.7-1.3-.3-.3-.9-.5-1.6-.6l-.9 4.2c-.2.8-.3 1.3-.2 1.5 0 .2.1.4.3.5.2.2.5.3.9.4l.9.2c1.4.3 2.6.2 3.6-.2 1-.5 1.8-1.3 2.5-2.5l.4.1-1.7 4.6-13-3.1.1-.4.5.1c.4.1.8.1 1.1 0 .2-.1.4-.2.6-.4.1-.2.3-.6.4-1.4l2.2-9.8c.1-.7.2-1.1.2-1.3 0-.3-.1-.5-.3-.7-.2-.3-.6-.5-1.1-.6l-.5-.1.1-.4 12.4 2.8-1 4.4-.4-.1c0-1.1-.1-2-.4-2.5-.3-.6-.7-1-1.4-1.4-.4-.2-1.1-.5-2.3-.7l-1.4-.2zM194.8 18.8l3.9 11.4 2.2-6.2c.3-.9.4-1.5.3-1.9-.2-.5-.7-.9-1.5-1.2l.1-.4 4.7 1.7-.1.4c-.6-.1-1.1-.2-1.3-.1-.3 0-.5.2-.7.4-.2.2-.4.7-.7 1.4l-4.3 11.9-.4-.1-5.4-15.4-3.3 9.1c-.3.8-.3 1.4 0 1.9.3.4.7.7 1.1.9l.3.1-.1.4-5.1-1.8.1-.4c.8.3 1.4.3 1.8.1.4-.2.8-.7 1-1.4l3.7-10.1-.2-.5c-.2-.5-.3-.8-.5-1-.2-.2-.5-.4-.9-.6l.1-.4 5.2 1.8zM220.2 29.8l-2.4 4.7-.4-.2c.3-1.4.3-2.6-.2-3.7s-1.2-1.9-2.2-2.4c-.8-.4-1.7-.6-2.7-.5-1 .1-1.8.5-2.5 1.1-.9.8-1.7 1.8-2.4 3-.6 1.2-1 2.4-1.3 3.5-.2 1.2-.1 2.2.3 3 .4.8 1.1 1.5 2.1 2.1.9.4 1.7.7 2.6.7.9 0 2-.3 3.2-.8l-.6 1.2c-1.2.4-2.3.6-3.3.5-1-.1-2.1-.4-3.2-1-1.4-.7-2.6-1.7-3.4-2.9-.8-1.2-1.3-2.4-1.3-3.8s.2-2.7.9-3.9c.7-1.3 1.6-2.3 2.9-3.1 1.3-.8 2.6-1.2 4.1-1.3 1.5 0 2.9.3 4.2.9 1 .5 1.8 1.2 2.7 2.2.5.6.8.9 1 1 .2.1.4.1.7.1.2-.1.5-.3.7-.6l.5.2zM227 35.8l-3.5 5.1.2.2c.8.5 1.5.7 2.2.4.7-.3 1.4-.8 2.2-1.7l.4.2-4.5 6.6-.4-.2c.4-.8.7-1.5.7-2.1.1-.6 0-1.1-.2-1.5-.2-.4-.6-.8-1.2-1.2l-2.4 3.5c-.5.7-.7 1.1-.8 1.3 0 .2 0 .4.1.6.1.2.3.4.7.7l.7.5c1.2.8 2.3 1.2 3.4 1.1 1.1-.1 2.2-.5 3.2-1.4l.3.2-3.3 3.6-10.8-7.5.2-.3.4.3c.4.3.7.4 1 .4.2 0 .4 0 .7-.2.2-.1.5-.5.9-1.1l5.7-8.2c.4-.6.6-.9.7-1.1.1-.3.1-.5 0-.7-.1-.3-.4-.6-.8-.9l-.4-.3.2-.3 10.5 7.2-2.6 3.7-.4-.2c.4-1 .6-1.9.6-2.5-.1-.6-.3-1.2-.8-1.8-.3-.3-.9-.9-1.8-1.5l-1.1-.9zM246.1 58.7l3.3 3.3-.3.3c-.4-.3-.8-.5-1.2-.5-.4 0-1 .1-2 .3-.9.3-2.1.5-3.5.6.1 1 .2 1.8.3 2.3.1.4.3.7.5.9.4.4 1 .5 1.8.3l.2.5c-1.3.4-2.4.6-3.2.4-.6-.1-1.2-.4-1.7-.9-.4-.4-.7-.9-.9-1.4-.2-.6-.3-1.3-.4-2.4-1.1-.2-2.1-.5-2.8-.9-.8-.4-1.5-.9-2.1-1.5-1-1-1.5-2.1-1.6-3.2 0-1.1.3-2.1 1-2.8.8-.8 1.8-1.2 2.9-1.2 1.2 0 2.5.3 4 .9.2-.5.4-.9.7-1.3.3-.4.5-.7.8-1.1.8-.8 1.8-1.3 3-1.2 1.2 0 2.2.5 3.1 1.4.7.7 1.2 1.5 1.2 2.3.1.8-.2 1.5-.6 2-.6.6-1.3.9-2.2.9-.9 0-2-.3-3.3-.9-.5 1.7-.7 3.7-.8 6 1.7-.1 2.8-.5 3.4-1.1.2-.2.3-.5.3-.8 0-.3-.1-.6-.4-1l.5-.2zm-5.9-4.2c-.6-.2-1.1-.4-1.5-.3-.5 0-1 .3-1.4.6-.5.5-.8 1.1-1 1.9s-.2 1.5-.1 2.2c.1.7.4 1.2.8 1.6.2.2.5.4.8.5s.7.3 1.2.4c.1-2.5.4-4.8 1.2-6.9zm3.2.6c.8.3 1.4.5 1.8.5.4 0 .8-.2 1.1-.6.6-.6.9-1.3 1-2 .1-.5-.1-.9-.4-1.2-.2-.2-.6-.4-.9-.3-.4 0-.7.2-1.1.5-.3.3-.5.6-.7 1-.1.3-.4 1.1-.8 2.1zM267.6 76.3l-3.4 2.4-.2-.3c.6-.7 1-1.4 1.2-1.8.2-.5.2-1 .1-1.6-.1-.3-.3-.8-.7-1.3l-.7-.9-9.6 6.7c-.6.4-1 .8-1.1.9-.1.2-.2.4-.1.7 0 .3.2.6.4 1l.3.4-.3.2-4.6-6.5.3-.2.3.4c.3.4.5.6.8.7.2.1.4.1.7.1.2 0 .6-.3 1.2-.7l9.6-6.7-.6-.9c-.6-.8-1.2-1.3-1.8-1.5-.9-.2-1.8 0-2.8.5l-.2-.4 3.4-2.4 7.8 11.2zM271 84.1l-5.5 2.9.1.3c.5.9 1.1 1.3 1.8 1.4.7.1 1.7-.1 2.8-.5l.2.4-7 3.7-.2-.4c.7-.5 1.3-1 1.6-1.5.4-.5.5-1 .5-1.4 0-.4-.2-1-.5-1.6l-3.8 2c-.7.4-1.2.7-1.3.8-.1.2-.2.3-.2.6 0 .2.1.5.3.9l.4.8c.7 1.3 1.5 2.1 2.5 2.6 1 .4 2.2.5 3.5.2l.2.4-4.6 1.7-6.2-11.6.4-.2.2.4c.2.4.4.7.7.8.2.1.4.2.7.1.2 0 .6-.2 1.3-.6l8.8-4.7c.6-.3 1-.5 1.1-.6.2-.2.3-.4.3-.7.1-.3 0-.7-.3-1.2l-.2-.4.4-.2 6 11.3-4 2.1-.2-.4c.9-.7 1.4-1.3 1.7-1.9.2-.6.3-1.2.1-2-.1-.4-.4-1.2-.9-2.2l-.7-1.3zM282.5 107.3l-4.9 1.9-.2-.4c1.2-.8 1.9-1.7 2.3-2.8.4-1.1.3-2.2-.1-3.2-.3-.9-.9-1.6-1.7-2.2-.8-.5-1.7-.8-2.6-.9-1.2 0-2.5.2-3.8.7-1.3.5-2.4 1.1-3.3 1.8-.9.7-1.5 1.5-1.8 2.4-.3.9-.2 1.9.2 3 .3.9.8 1.6 1.5 2.2.7.6 1.6 1.1 2.9 1.6l-1.2.5c-1.1-.5-2.1-1.1-2.8-1.8-.7-.7-1.3-1.7-1.7-2.8-.6-1.5-.8-3-.6-4.4.2-1.4.7-2.7 1.6-3.7.9-1.1 2-1.9 3.3-2.3 1.4-.5 2.8-.6 4.3-.4 1.5.2 2.8.8 3.9 1.8s2 2.1 2.5 3.5c.4 1 .6 2.1.6 3.4 0 .7 0 1.2.1 1.4.1.2.2.4.5.5s.5.1.9 0l.1.2zM276.8 118l-4.6 1.1c-.8.2-1.2.3-1.4.5-.2.1-.3.3-.4.6-.1.3-.1.6 0 1l.1.5-.4.1-1.8-7.8.4-.1.1.5c.1.4.3.8.5 1 .1.2.4.3.6.3.2 0 .7 0 1.4-.2l9.8-2.2c.8-.2 1.2-.3 1.4-.4.2-.1.3-.3.4-.6.1-.3.1-.6 0-1l-.1-.5.4-.1 1.8 7.8-.4.1-.1-.5c-.1-.4-.3-.8-.5-1-.1-.2-.4-.3-.6-.3-.2 0-.7 0-1.4.2l-4.2 1 1.2 5.2 4.2-1c.8-.2 1.2-.3 1.4-.4.2-.1.3-.3.4-.6s.1-.6 0-1l-.1-.5.4-.1 1.8 7.8-.4.1-.1-.5c-.1-.4-.3-.8-.5-1-.1-.2-.4-.3-.6-.3-.2 0-.7 0-1.4.2l-9.8 2.2c-.8.2-1.2.3-1.4.4-.2.1-.3.3-.4.6-.1.3-.1.6 0 1l.1.5-.4.1-1.8-7.8.4-.1.1.5c.1.4.3.8.5 1 .1.2.4.3.6.3.2 0 .7 0 1.4-.2l4.6-1.1-1.2-5.3z" class="st1"/><path d="m287.9 134.8-8.7 8.3 6.5-.6c.9-.1 1.5-.3 1.8-.6.4-.4.6-1 .5-1.9h.4l.5 5h-.4c-.1-.6-.3-1.1-.4-1.3-.2-.2-.4-.4-.7-.5-.3-.1-.8-.1-1.5 0l-12.6 1.1v-.4l11.7-11.4-9.6.9c-.9.1-1.4.3-1.7.8-.3.4-.4.9-.3 1.4v.4h-.4l-.5-5.4h.4c.1.8.3 1.4.7 1.7.4.3 1 .4 1.8.3l10.7-1 .4-.4c.4-.4.6-.7.7-.9.1-.3.1-.6.1-1.1h.4l.2 5.6zM288.7 156.1c0 2.4-.8 4.4-2.4 5.8-1.6 1.4-3.5 2.1-5.7 2-1.9-.1-3.6-.7-5-1.9-1.9-1.6-2.8-3.7-2.6-6.5.1-2.7 1.1-4.8 3.1-6.2 1.5-1.1 3.3-1.6 5.3-1.5 2.3.1 4.1.9 5.5 2.6 1.4 1.5 2 3.5 1.8 5.7zm-.7.1c.1-1.4-.6-2.5-2-3.3-1.1-.6-2.8-1-5-1.1-2.6-.1-4.5.3-5.8 1.1-.9.6-1.4 1.5-1.4 2.6 0 .8.1 1.4.5 2 .4.7 1.2 1.2 2.2 1.6s2.4.7 4.1.7c2 .1 3.5 0 4.5-.4 1-.3 1.7-.8 2.2-1.3.4-.5.7-1.1.7-1.9zM275.6 179.2l-5.2-1.5 2.3-13.3.4.1-.1.5c-.1.4-.1.8 0 1.1.1.2.2.4.5.5.2.1.6.2 1.4.4l9.9 1.7c.8.1 1.3.2 1.5.1.2 0 .4-.2.6-.4.2-.2.3-.5.4-1l.1-.5.4.1-1.4 8-.4-.1.1-.7c.1-.4.1-.8 0-1.1-.1-.2-.2-.4-.5-.5-.2-.1-.6-.2-1.4-.4l-9.6-1.7c-.8-.1-1.3-.2-1.5-.1-.2.1-.4.2-.6.4-.1.2-.2.6-.3 1.3l-.2 1.3c-.1.8-.1 1.5.1 2.1.2.6.5 1.1 1.1 1.6.5.5 1.4 1 2.5 1.6l-.1.5zM282.5 191.7c-.6 2.3-1.9 4-3.8 5s-3.9 1.1-6.1.5c-1.8-.6-3.3-1.6-4.3-3.2-1.4-2-1.7-4.3-.9-6.9.8-2.6 2.3-4.4 4.6-5.2 1.8-.7 3.6-.7 5.5-.1 2.2.7 3.7 2 4.7 3.9.9 1.9 1 3.9.3 6zm-.7 0c.4-1.3.1-2.6-1.1-3.7-.9-.9-2.4-1.7-4.5-2.4-2.5-.8-4.4-.9-5.9-.4-1 .3-1.7 1.1-2 2.2-.2.7-.2 1.4 0 2 .3.8.8 1.5 1.7 2.2s2.1 1.3 3.8 1.8c1.9.6 3.4.9 4.5.8 1.1-.1 1.9-.3 2.4-.7.4-.5.8-1.1 1.1-1.8zM272.4 216.3l-4.8-2.3.2-.4c1.5.2 2.9 0 4-.6s1.9-1.4 2.5-2.5c.5-1 .6-2 .4-3s-.8-1.8-1.7-2.6c-.9-.8-1.9-1.4-3-2-1.3-.6-2.5-1-3.7-1.2-1.1-.2-2.1 0-2.9.5-.8.5-1.4 1.2-1.9 2.1-.2.3-.3.7-.4 1.1-.1.4-.2.8-.2 1.2l2.9 1.4c.5.3.9.4 1.1.4.2 0 .4-.1.7-.3.2-.2.4-.4.6-.8l.2-.4.4.2-3.2 6.7-.4-.2c.2-.5.3-.9.3-1.2 0-.2-.1-.5-.3-.7-.1-.1-.4-.3-.9-.5l-2.9-1.4c0-1.1.2-2.1.4-3.2.3-1 .6-2.1 1.1-3.1.6-1.3 1.3-2.3 2.1-3 .8-.7 1.6-1.2 2.5-1.6.9-.4 1.8-.6 2.7-.6 1.2 0 2.3.2 3.5.8 2.1 1 3.5 2.6 4.2 4.7.7 2.1.6 4.3-.5 6.5-.3.7-.7 1.3-1 1.8-.2.3-.6.7-1.2 1.2s-.9.9-.9 1c-.1.2-.1.4 0 .6.1.2.3.5.6.8l-.5.6zM261.4 232.9l-.3-.2c.2-.5.3-.9.3-1.2-.1-.5-.4-1.5-1.2-2.9l-2.8-5.8-3.1-2c-.7-.4-1.1-.7-1.3-.7-.2 0-.4 0-.7.1-.3.1-.5.4-.7.7l-.5.7-.3-.2 4.7-7.1.3.2-.4.7c-.2.4-.4.7-.4 1 0 .2 0 .4.2.7.1.2.5.5 1.1.9l2.5 1.7 7.4.6c1.5.1 2.4.1 2.7 0 .4-.1.7-.4.9-.8l.3.2-4 6.1-.3-.2.2-.3c.2-.4.4-.7.4-.9 0-.2-.1-.4-.2-.4-.2-.1-1-.3-2.2-.4l-5.7-.5 2.3 4.8c.6 1.2 1 1.9 1.3 2.1.2.1.4.1.6 0 .3-.1.6-.4 1.1-1l.3.2-2.5 3.9z" class="st1"/></g><path id="XMLID_53_" d="M264.4 149.5c0 14.9-2.9 29.1-8.1 42.1H44.5c-5.2-13-8.1-27.3-8.1-42.1 0-2.7.1-5.4.3-8.1.3-3.8.7-7.5 1.3-11.2h46.2V115h27.6v-2.9L135 98.9C135.9 85 149.8 85 149.8 85c14.7 1.2 14.7 13.8 14.7 13.8l23 13.3v2.8h28.6v15.2h46.6c.6 3.7 1.1 7.4 1.3 11.2.3 2.7.4 5.4.4 8.2z" class="st3"/><path id="XMLID_27_" d="M138.3 130.5h26v49.1h-26z" class="st0"/><path id="XMLID_26_" d="M174.1 130.5h6.8v49.1h-6.8z" class="st0"/><path id="XMLID_25_" d="M195 130.5h6.8v49.1H195z" class="st0"/><path id="XMLID_22_" d="M211.5 147h6.8v32.3h-6.8z" class="st0"/><path id="XMLID_21_" d="M223.5 147h6.8v32.3h-6.8z" class="st0"/><path id="XMLID_20_" d="M236.2 147h6.8v32.3h-6.8z" class="st0"/><path id="XMLID_19_" d="M248.4 147h6.8v32.3h-6.8z" class="st0"/><path id="XMLID_18_" d="M121.3 130.5h6.8v49.1h-6.8z" class="st0"/><path id="XMLID_15_" d="M102.5 130.5h6.8v49.1h-6.8z" class="st0"/><path id="XMLID_12_" d="M82 147h6.8v32.3H82z" class="st0"/><path id="XMLID_11_" d="M69.6 147h6.8v32.3h-6.8z" class="st0"/><path id="XMLID_10_" d="M57.4 147h6.8v32.3h-6.8z" class="st0"/><path id="XMLID_7_" d="M44.9 147h6.8v32.3h-6.8z" class="st0"/><path id="XMLID_52_" d="M264.4 149.5c0 14.9-2.9 29.1-8.1 42.1H44.5c-5.2-13-8.1-27.3-8.1-42.1 0-2.7.1-5.4.3-8.1.3-3.8.7-7.5 1.3-11.2h46.2V115h27.6v-2.9L135 98.9C135.9 85 149.8 85 149.8 85c14.7 1.2 14.7 13.8 14.7 13.8l23 13.3v2.8h28.6v15.2h46.6c.6 3.7 1.1 7.4 1.3 11.2.3 2.7.4 5.4.4 8.2z" class="st3"/><path id="XMLID_23_" d="M138.3 130.5h26v49.1h-26z" class="st0"/><path id="XMLID_17_" d="M174.1 130.5h6.8v49.1h-6.8z" class="st0"/><path id="XMLID_16_" d="M195 130.5h6.8v49.1H195z" class="st0"/><path id="XMLID_14_" d="M211.5 147h6.8v32.3h-6.8z" class="st0"/><path id="XMLID_13_" d="M223.5 147h6.8v32.3h-6.8z" class="st0"/><path id="XMLID_9_" d="M236.2 147h6.8v32.3h-6.8z" class="st0"/><path id="XMLID_8_" d="M248.4 147h6.8v32.3h-6.8z" class="st0"/><path id="XMLID_6_" d="M121.3 130.5h6.8v49.1h-6.8z" class="st0"/><path id="XMLID_5_" d="M102.5 130.5h6.8v49.1h-6.8z" class="st0"/><path id="XMLID_4_" d="M82 147h6.8v32.3H82z" class="st0"/><path id="XMLID_3_" d="M69.6 147h6.8v32.3h-6.8z" class="st0"/><path id="XMLID_2_" d="M57.4 147h6.8v32.3h-6.8z" class="st0"/><path id="XMLID_1_" d="M44.9 147h6.8v32.3h-6.8z" class="st0"/><path id="inner_5_" d="M264.4 149.5c0 19.3-4.8 37.4-13.2 53.3-19.1 36.1-57.1 60.7-100.8 60.7-43.7 0-81.7-24.6-100.8-60.7-8.4-15.9-13.2-34-13.2-53.3 0-2.7.1-5.4.3-8.1C40.9 82.2 90.2 35.5 150.4 35.5S260 82.2 264.1 141.3c.2 2.7.3 5.4.3 8.2z" class="st4"/><g id="MUST"><path d="m93.1 250 12.3 4.6-2.2 20.3 11.7-16.7 12.3 4.6-11.4 30.4-7.7-2.9 8.7-23.2-14.6 20.9-7-2.6L98 260l-8.7 23.1-7.7-2.9L93.1 250zM151 263.7l10 .4-.8 19.3c-.1 1.9-.4 3.7-1.1 5.4-.7 1.7-1.7 3.1-3 4.4-1.3 1.2-2.7 2.1-4.1 2.5-2 .6-4.3.9-7 .8-1.6-.1-3.3-.2-5.1-.5-1.9-.3-3.4-.8-4.6-1.5-1.2-.7-2.3-1.7-3.3-2.9s-1.7-2.5-2-3.8c-.5-2.1-.8-3.9-.7-5.5l.8-19.3 10 .4-.8 19.8c-.1 1.8.4 3.2 1.3 4.2s2.3 1.6 4 1.7c1.7.1 3.1-.4 4.1-1.3 1-.9 1.6-2.3 1.6-4.1l.7-20zM167.6 285l9.1-2.8c.6 1.5 1.3 2.5 2.1 3.1 1.3 1 2.9 1.3 4.8.9 1.4-.3 2.4-.9 3-1.8.6-.8.8-1.7.6-2.5-.2-.8-.7-1.5-1.6-1.9-.9-.5-2.7-.7-5.4-.6-4.5.1-7.9-.5-10.1-1.6-2.2-1.1-3.6-3-4.2-5.4-.4-1.6-.3-3.3.3-4.9.6-1.7 1.7-3.1 3.4-4.4 1.7-1.3 4.2-2.3 7.4-3.1 4-1 7.3-1 9.8 0 2.5 1 4.3 3.1 5.5 6.2l-9 2.8c-.6-1.4-1.3-2.3-2.3-2.7s-2.1-.5-3.5-.2c-1.1.3-1.9.7-2.4 1.3-.5.6-.6 1.3-.4 2 .1.5.5.9 1 1.2.6.3 1.7.4 3.5.4 4.5-.1 7.8.1 9.8.6 2.1.5 3.7 1.3 4.9 2.5 1.2 1.2 2 2.6 2.4 4.4.5 2 .4 4-.3 6s-2 3.6-3.7 5c-1.8 1.4-4.2 2.4-7.3 3.2-5.4 1.3-9.3 1.2-11.9-.4-2.7-1.9-4.5-4.2-5.5-7.3zM190.8 257.2l26.7-14.6 3.8 7-9 4.9L224 276l-8.8 4.8-11.7-21.4-9 4.9-3.7-7.1z" class="st1"/></g><circle id="outer_2_" cx="150" cy="150" r="147" class="st4"/><g id="KNOWLEDGE"><path d="m71.8 215.1 7.7-7 1.4 1.6-3.4 3.1h6.2l1.9 2.1-5.6-.2-2 7.3-1.8-2 1.7-5.4-2.4-.1-2.3 2.1-1.4-1.5zM79.4 223.2l6.9-7.7 1.5 1.4-1.4 8 4.6-5.2 1.5 1.3-6.9 7.7-1.6-1.4 1.4-7.8-4.5 5-1.5-1.3zM90.4 226.1c.6-.9 1.2-1.5 1.9-1.9.5-.3 1-.5 1.6-.6.6-.1 1.1-.1 1.6 0 .7.1 1.4.5 2.1 1 1.2.9 2 2 2.2 3.3.2 1.3-.2 2.6-1.2 4s-2.1 2.2-3.4 2.4c-1.3.2-2.6-.1-3.8-.9-1.3-.9-2-2-2.2-3.3-.2-1.3.2-2.6 1.2-4zm1.8 1.2c-.7 1-1 1.8-.9 2.6.1.8.5 1.5 1.2 1.9.7.5 1.4.6 2.2.4s1.5-.8 2.2-1.7c.7-1 1-1.8.9-2.6-.1-.8-.5-1.4-1.2-1.9s-1.4-.7-2.2-.5c-.8.2-1.6.8-2.2 1.8zM99 238.1l2.6-10.3 1.9 1-1.9 7 5-5.4 2.2 1.2-1.8 7.3 4.8-5.7 1.9 1-7 8-2-1 1.8-7.8-5.4 5.9-2.1-1.2zM110.6 243.8l3.7-9.6 2 .7-3 8 4.9 1.9-.6 1.6-7-2.6zM119.4 247.1l2.7-10 7.4 2-.5 1.7-5.4-1.5-.6 2.2 5 1.4-.5 1.7-5-1.4-.7 2.7 5.6 1.5-.5 1.7-7.5-2zM131.1 239.4l3.8.6c.9.1 1.5.3 1.9.5.6.3 1 .7 1.4 1.2.4.5.6 1.1.7 1.8.1.7.1 1.5-.1 2.5-.1.8-.4 1.6-.7 2.1-.4.7-.8 1.2-1.4 1.6-.4.3-.9.5-1.6.6-.5.1-1.1 0-1.9-.1l-3.9-.6 1.8-10.2zm1.7 2.1-1.1 6.8 1.5.3c.6.1 1 .1 1.3.1.3 0 .6-.1.9-.3.3-.2.5-.5.7-.9.2-.4.4-1 .5-1.8.1-.8.2-1.4.1-1.9-.1-.4-.2-.8-.4-1.1s-.5-.5-.9-.6c-.3-.1-.8-.2-1.7-.4l-.9-.2zM145.4 247.8l.1-1.7 4.5.2-.2 4.1c-.5.4-1.1.7-2 1-.8.3-1.7.4-2.5.4-1.1-.1-2-.3-2.8-.8-.8-.5-1.4-1.2-1.7-2-.4-.9-.5-1.8-.5-2.8.1-1.1.3-2 .8-2.8.5-.8 1.2-1.4 2.1-1.8.7-.3 1.5-.4 2.5-.4 1.3.1 2.3.4 3 1 .7.6 1.1 1.3 1.3 2.3l-2.1.3c-.1-.5-.4-.9-.8-1.2-.4-.3-.9-.5-1.5-.5-.9 0-1.7.2-2.2.8-.6.6-.9 1.4-.9 2.5-.1 1.2.2 2.2.7 2.8.5.6 1.2 1 2.1 1 .4 0 .9 0 1.3-.2.4-.1.8-.3 1.2-.6l.1-1.3-2.5-.3zM152.3 251.7l-.6-10.3 7.7-.5.1 1.7-5.6.3.1 2.3 5.2-.3.1 1.7-5.2.3.2 2.8 5.8-.3.1 1.7-7.9.6zM166.6 250.3l-1.8-10.2 2.1-.4 1.8 10.2-2.1.4zM169.7 246.4l1.9-.7c.3.6.6 1.1 1.1 1.3.4.2 1 .3 1.6.1.7-.2 1.1-.4 1.4-.8.3-.4.3-.7.3-1.1-.1-.2-.2-.4-.4-.6-.2-.1-.5-.2-.8-.3h-1.7c-1.2 0-2-.1-2.5-.4-.8-.4-1.2-1-1.4-1.8-.1-.5-.1-1 .1-1.5s.5-1 1-1.3c.5-.4 1.1-.7 1.9-.8 1.3-.3 2.3-.3 3.1.1.8.4 1.3 1.1 1.6 2l-2 .6c-.2-.5-.5-.8-.8-1-.3-.2-.8-.2-1.4 0-.6.1-1 .4-1.3.7-.2.2-.2.4-.2.7.1.2.2.4.5.5.3.2 1 .2 2 .2s1.8 0 2.4.2c.5.1 1 .4 1.4.7.4.4.6.9.8 1.5.1.6.1 1.2-.1 1.7-.2.6-.6 1.1-1.1 1.5-.5.4-1.2.7-2.1.9-1.3.3-2.3.3-3.1-.2-1.2-.3-1.8-1.1-2.2-2.2zM185 245.6l-3.9-9.6 3.1-1.3c1.2-.5 2-.7 2.4-.8.6-.1 1.2 0 1.8.4.6.3 1 .9 1.3 1.6.2.6.3 1.1.3 1.6s-.2.9-.4 1.3-.5.7-.8.9c-.4.3-1.1.6-2 1l-1.3.5 1.5 3.6-2 .8zm-1.3-8.8 1.1 2.7 1.1-.4c.8-.3 1.3-.6 1.5-.8.2-.2.4-.4.4-.7.1-.3 0-.6-.1-.8-.1-.3-.4-.6-.7-.7-.3-.1-.6-.2-1-.1-.2.1-.7.2-1.4.5l-.9.3zM191.7 237.3c-.5-.9-.8-1.8-.9-2.6 0-.6 0-1.1.2-1.7.2-.6.4-1.1.7-1.5.4-.5 1-1 1.8-1.4 1.3-.7 2.6-.9 3.9-.5 1.3.4 2.3 1.3 3.1 2.8.8 1.5 1 2.8.7 4.1-.3 1.3-1.2 2.3-2.5 3-1.4.7-2.7.9-3.9.5-1.3-.4-2.3-1.3-3.1-2.7zm1.9-1.1c.6 1 1.2 1.7 2 2 .8.3 1.5.2 2.2-.2.7-.4 1.2-1 1.4-1.8.2-.8 0-1.7-.6-2.8-.6-1-1.2-1.7-2-2-.7-.3-1.5-.2-2.2.2-.8.4-1.2 1-1.4 1.8-.2.8 0 1.7.6 2.8zM206.3 234.8l-8.1-6.9 1.7-1.3 5.5 4.8-2.7-6.9 2-1.5 5.7 4.8-3-6.8 1.7-1.2 4.1 9.9-1.8 1.3-6.2-5 2.9 7.5-1.8 1.3zM216.6 227l-7.1-7.6 5.6-5.2 1.2 1.3-4.1 3.8 1.6 1.7 3.8-3.5 1.2 1.3-3.8 3.5 1.9 2.1 4.2-3.9 1.2 1.3-5.7 5.2zM224 219.8l-7.8-6.8 2.9-3.3c.7-.8 1.3-1.4 1.8-1.6.5-.3 1-.3 1.5-.3.6.1 1.1.3 1.5.7.6.5.9 1.1 1 1.8.1.7-.1 1.4-.6 2.2.5-.2 1-.3 1.4-.3.4 0 1.1.1 2.1.2l2.4.4-1.6 1.9-2.7-.3c-1-.1-1.6-.2-1.9-.2-.3 0-.5.1-.7.2-.2.1-.5.4-.8.7l-.3.3 3.3 2.8-1.5 1.6zm-3.1-5.5 1-1.2c.7-.8 1-1.3 1.1-1.5.1-.2.1-.5.1-.7-.1-.2-.2-.5-.4-.7-.3-.2-.5-.3-.8-.3-.3 0-.6.1-.8.3-.1.1-.5.5-1 1.1l-1.1 1.2 1.9 1.8z" class="st1"/></g></g></svg>